<svg xmlns="http://www.w3.org/2000/svg" id="Layer_1" data-name="Layer 1" viewBox="0 0 282.36 167.52"><defs><style>.cls-2{fill:#fff}</style></defs><g><g><path fill="#f28b23" d="M437.85 206.84c-6.74-17.1-23.75-59-23.75-59-1.08-2.85-2-5.13-2.68-6.84a25.1 25.1 0 00-2.59-4.79 11.94 11.94 0 00-4-3.64 14.27 14.27 0 00-12.41 0 11.76 11.76 0 00-4 3.7 30.19 30.19 0 00-2.9 5.76c-.9 2.31-1.67 4.28-2.32 5.93 0 0-16.48 41.72-23.23 58.86a5.18 5.18 0 004.83 7.08h9.53a5.29 5.29 0 003.67-1.48 2.85 2.85 0 00.23-.26 29.12 29.12 0 0111.9-7.26 3 3 0 002.12-2.91v-11.5a42.39 42.39 0 00-9.09 2.47l2.27-6.5L398.44 150l13.31 36.45 2.24 6.25a42.75 42.75 0 00-8.52-2.24V202a3.08 3.08 0 002.17 2.93 29.42 29.42 0 0112.07 7.35l.15.16a5.26 5.26 0 003.69 1.51H433a5.18 5.18 0 004.85-7.11z" transform="translate(-156.83 -131.17)"/><g><path d="M197.4 213.37L192.93 203h-20.15l-4.47 10.38H156.9l20.76-48.05h10.39l20.76 48.05zm-14.51-33.75l-6 13.95h12zM225.27 174.91a4.14 4.14 0 00-1.54 3.37 3.77 3.77 0 001.89 3.33q1.89 1.24 8.73 2.92t10.65 5.06q3.78 3.36 3.78 9.83a13 13 0 01-4.85 10.48q-4.85 4-12.75 4-11.42 0-20.56-8.45l6.4-7.84q7.77 6.81 14.37 6.81a7.54 7.54 0 004.64-1.28 4.07 4.07 0 001.68-3.43 4 4 0 00-1.79-3.44q-1.78-1.28-7.08-2.58-8.38-2-12.27-5.19t-3.88-10q0-6.84 4.91-10.55a19.82 19.82 0 0112.27-3.71 29.55 29.55 0 019.63 1.65 26 26 0 018.39 4.67l-5.43 7.84a21.19 21.19 0 00-12.93-4.74 6.45 6.45 0 00-4.26 1.25zM291.58 213.37L287.11 203H267l-4.47 10.38h-11.44l20.76-48.05h10.38L303 213.37zm-14.51-33.75L271 193.57h12zM341.66 169.62q5.05 4.29 5 13.19t-5.19 13q-5.14 4.19-15.79 4.19h-6.4v13.4h-10.72v-48.08h17q11.05 0 16.1 4.3zm-7.87 18.9c1.28-1.44 1.93-3.55 1.93-6.32s-.84-4.75-2.51-5.92-4.28-1.75-7.81-1.75h-6.12v16.16h7.22c3.58 0 6.01-.69 7.29-2.17z" class="cls-2" transform="translate(-156.83 -131.17)"/></g><g><path d="M156.9 230.36h10.73v48.05H156.9zM213.07 230.36h10.72v48.05h-10.72l-22.89-30.11v30.11h-10.73v-48.05h10l23.58 30.93zM268.62 230.36v9.41h-22.28v10.38h21.18v9.42h-21.18v18.84h-10.72v-48.05zM318.11 271.78a26.19 26.19 0 01-35.88 0 25.14 25.14 0 010-35.41 26.16 26.16 0 0135.88 0 25.14 25.14 0 010 35.41zm-3.64-17.67a15.73 15.73 0 00-4.12-11 13.6 13.6 0 00-20.29 0 16.61 16.61 0 000 21.9 13.69 13.69 0 0020.29 0 15.6 15.6 0 004.12-10.9zM373.46 246.3q0 11.55-9.15 14.92l12.17 17.19h-13.2l-10.66-15.33h-7.42v15.33h-10.73v-48.05h18.22q11.21 0 16 3.78t4.77 12.16zm-12.93 5.7q2-1.78 2-5.67c0-2.59-.68-4.37-2.06-5.33s-3.78-1.44-7.22-1.44h-8v14.24H353q5.53 0 7.53-1.8zM427.49 248.16l-13 26.26h-6.4l-12.92-26.26v30.25h-10.72v-48.05H399l12.37 26.39 12.45-26.39h14.43v48.05h-10.76z" class="cls-2" transform="translate(-156.83 -131.17)"/></g></g><g><path d="M165.13 298.57l-.91-2.12h-4.13l-.92 2.12h-2.34l4.26-9.85h2.13l4.25 9.85zm-3-6.91l-1.24 2.86h2.46zM175.38 288.72v1.94h-4.57v2.12h4.34v1.93h-4.34v3.86h-2.2v-9.85zM185.22 292a2.9 2.9 0 01-1.87 3.06l2.49 3.52h-2.7l-2.14-3.15h-1.52v3.14h-2.19v-9.85H181a5.3 5.3 0 013.27.78 3 3 0 01.95 2.5zm-2.65 1.17A1.45 1.45 0 00183 292a1.25 1.25 0 00-.42-1.09 2.66 2.66 0 00-1.48-.3h-1.65v2.92H181a2.31 2.31 0 001.57-.37zM187.48 288.72h2.2v9.85h-2.2zM196.62 296.63a3.25 3.25 0 002.65-1.28l1.41 1.45a5.31 5.31 0 01-7.7.45 5.22 5.22 0 010-7.29 5.07 5.07 0 013.67-1.46 5.19 5.19 0 014.06 1.85l-1.37 1.54a3.2 3.2 0 00-2.59-1.29 3 3 0 00-2.12.81 2.81 2.81 0 00-.88 2.18 3 3 0 00.83 2.21 2.74 2.74 0 002.04.83zM209.36 298.57l-.92-2.12h-4.12l-.92 2.12h-2.34l4.26-9.85h2.12l4.26 9.85zm-3-6.91l-1.24 2.86h2.46zM221.08 296.63a3.25 3.25 0 002.65-1.28l1.41 1.45a5.31 5.31 0 01-7.7.45 5.22 5.22 0 010-7.29 5.07 5.07 0 013.67-1.46 5.19 5.19 0 014.06 1.85l-1.37 1.54a3.2 3.2 0 00-2.59-1.29 3 3 0 00-2.12.81 2.81 2.81 0 00-.88 2.18 3 3 0 00.83 2.21 2.74 2.74 0 002.04.83zM235 297.21a5.37 5.37 0 01-7.36 0 5.15 5.15 0 010-7.25 5.37 5.37 0 017.36 0 5.15 5.15 0 010 7.25zm-.75-3.62a3.18 3.18 0 00-.85-2.24 2.78 2.78 0 00-4.15 0 3.38 3.38 0 000 4.48 2.78 2.78 0 004.15 0 3.16 3.16 0 00.8-2.24zM247.12 292.37l-2.66 5.39h-1.31l-2.65-5.39v6.2h-2.2v-9.85h3l2.54 5.42 2.55-5.42h3v9.85h-2.2zM258.53 289.61a3.33 3.33 0 011 2.7 3.19 3.19 0 01-1.03 2.69 5.2 5.2 0 01-3.25.85h-1.31v2.74h-2.2v-9.85h3.48a5.06 5.06 0 013.31.87zm-1.62 3.87a1.87 1.87 0 00.4-1.3 1.37 1.37 0 00-.52-1.21 2.8 2.8 0 00-1.6-.36h-1.25v3.31h1.48a1.94 1.94 0 001.49-.44zM261.28 298.57v-9.85h2.2v7.9h4.2v1.95zM269.28 288.72h2.2v9.85h-2.2zM280.92 298.57l-.91-2.12h-4.13l-.92 2.12h-2.34l4.26-9.85H279l4.25 9.85zm-3-6.91l-1.24 2.86h2.46zM291.29 288.72h2.2v9.85h-2.2l-4.69-6.17v6.17h-2.2v-9.85h2.06l4.83 6.35zM300.44 296.63a3.26 3.26 0 002.65-1.28l1.4 1.45a5.31 5.31 0 01-7.7.45 5.22 5.22 0 010-7.29 5.09 5.09 0 013.67-1.46 5.17 5.17 0 014.06 1.85l-1.37 1.54a3.2 3.2 0 00-2.59-1.29 3 3 0 00-2.12.81 2.81 2.81 0 00-.88 2.18 3 3 0 00.83 2.21 2.78 2.78 0 002.05.83zM313.33 288.72v2h-4.9v2h4.41v1.88h-4.41v2h5.05v1.94h-7.25v-9.85zM327.15 292a2.9 2.9 0 01-1.87 3.06l2.49 3.52h-2.7l-2.19-3.14h-1.52v3.14h-2.2v-9.85h3.74a5.3 5.3 0 013.27.78 3 3 0 01.98 2.49zm-2.65 1.17a1.49 1.49 0 00.41-1.16 1.25 1.25 0 00-.42-1.09 2.68 2.68 0 00-1.48-.3h-1.65v2.92H323a2.31 2.31 0 001.5-.38zM329.41 288.72h2.19v9.85h-2.19zM336.33 290.69a.85.85 0 00-.32.69.77.77 0 00.39.68 7.13 7.13 0 001.79.6 5.1 5.1 0 012.18 1 2.57 2.57 0 01.77 2 2.66 2.66 0 01-1 2.15 4 4 0 01-2.62.83 6 6 0 01-4.21-1.74l1.31-1.6a4.66 4.66 0 002.95 1.39 1.51 1.51 0 00.95-.26.83.83 0 00.34-.7.84.84 0 00-.36-.71 5 5 0 00-1.45-.53 6.23 6.23 0 01-2.52-1.06 2.52 2.52 0 01-.8-2.06 2.56 2.56 0 011-2.16 4 4 0 012.52-.76 6 6 0 012 .34 5.07 5.07 0 011.72 1l-1.11 1.6a4.34 4.34 0 00-2.65-1 1.35 1.35 0 00-.88.3zM343 288.72h2.19v4l3.72-4h2.72l-3.91 4.36c.33.47 1 1.34 1.87 2.63l2 2.86h-2.56l-2.89-3.89-1 1.1v2.79H343zM359 290.69a.84.84 0 00-.31.69.76.76 0 00.38.68 7.13 7.13 0 001.79.6 5 5 0 012.18 1 2.54 2.54 0 01.77 2 2.66 2.66 0 01-1 2.15 4 4 0 01-2.61.83A6.05 6.05 0 01356 297l1.31-1.6a4.69 4.69 0 003 1.39 1.51 1.51 0 00.95-.26.84.84 0 00.35-.7.85.85 0 00-.37-.71 4.9 4.9 0 00-1.45-.53 6.23 6.23 0 01-2.52-1.06 2.94 2.94 0 01.22-4.22 4 4 0 012.51-.76 5.88 5.88 0 012 .34 5.07 5.07 0 011.72 1l-1.11 1.6a4.34 4.34 0 00-2.65-1 1.35 1.35 0 00-.96.2zM374 297.21a5.36 5.36 0 01-7.35 0 5.15 5.15 0 010-7.25 5.36 5.36 0 017.35 0 5.13 5.13 0 010 7.25zm-.74-3.62a3.22 3.22 0 00-.85-2.24 2.69 2.69 0 00-2.08-.93 2.72 2.72 0 00-2.08.93 3.41 3.41 0 000 4.48 2.72 2.72 0 002.08.93 2.69 2.69 0 002.08-.93 3.2 3.2 0 00.86-2.24zM377.37 298.57v-9.85h2.19v7.9h4.2v1.95zM387.76 296a2 2 0 003 0 3 3 0 00.54-1.87v-5.44h2.2v5.51a4.36 4.36 0 01-1.19 3.29 4.57 4.57 0 01-6.06 0 4.35 4.35 0 01-1.19-3.29v-5.51h2.2v5.44a3 3 0 00.5 1.87zM399.91 290.63v7.94h-2.2v-7.94h-2.79v-1.91h7.78v1.91zM404.31 288.72h2.2v9.85h-2.2zM417.21 297.21a5.36 5.36 0 01-7.35 0 5.13 5.13 0 010-7.25 5.36 5.36 0 017.35 0 5.13 5.13 0 010 7.25zm-.74-3.62a3.22 3.22 0 00-.85-2.24 2.79 2.79 0 00-4.16 0 3.41 3.41 0 000 4.48 2.79 2.79 0 004.16 0 3.2 3.2 0 00.85-2.24zM427.46 288.72h2.19v9.85h-2.19l-4.7-6.17v6.17h-2.19v-9.85h2.05l4.84 6.35zM434.38 290.69a.85.85 0 00-.32.69.77.77 0 00.39.68 7.13 7.13 0 001.79.6 5 5 0 012.18 1 2.57 2.57 0 01.77 2 2.66 2.66 0 01-1 2.15 4 4 0 01-2.61.83 6.05 6.05 0 01-4.22-1.74l1.31-1.6a4.66 4.66 0 002.95 1.39 1.51 1.51 0 00.95-.26.83.83 0 00.34-.7.84.84 0 00-.36-.71 5 5 0 00-1.45-.53 6.23 6.23 0 01-2.52-1.06 2.51 2.51 0 01-.79-2.06 2.55 2.55 0 011-2.16 4 4 0 012.52-.76 6 6 0 012 .34 5.07 5.07 0 011.72 1l-1.11 1.6a4.34 4.34 0 00-2.65-1 1.35 1.35 0 00-.89.3z" class="cls-2" transform="translate(-156.83 -131.17)"/></g></g></svg>